<?xml version="1.0" encoding="UTF-8" standalone="no"?>
<!-- Created with Inkscape (http://www.inkscape.org/) -->

<svg
   xmlns:dc="http://purl.org/dc/elements/1.1/"
   xmlns:cc="http://creativecommons.org/ns#"
   xmlns:rdf="http://www.w3.org/1999/02/22-rdf-syntax-ns#"
   xmlns:svg="http://www.w3.org/2000/svg"
   xmlns="http://www.w3.org/2000/svg"
   xmlns:sodipodi="http://sodipodi.sourceforge.net/DTD/sodipodi-0.dtd"
   xmlns:inkscape="http://www.inkscape.org/namespaces/inkscape"
   width="70"
   height="70"
   viewBox="0 0 70.000002 70.000005"
   id="svg2"
   version="1.1"
   inkscape:version="0.91 r13725"
   sodipodi:docname="drawing.svg">
  <defs
     id="defs4" />
  <sodipodi:namedview
     id="base"
     pagecolor="#ffffff"
     bordercolor="#666666"
     borderopacity="1.0"
     inkscape:pageopacity="0.0"
     inkscape:pageshadow="2"
     inkscape:zoom="5.6"
     inkscape:cx="17.13014"
     inkscape:cy="39.759615"
     inkscape:document-units="px"
     inkscape:current-layer="layer1"
     showgrid="false"
     fit-margin-top="0"
     fit-margin-left="0"
     fit-margin-right="0"
     fit-margin-bottom="0"
     inkscape:window-width="1366"
     inkscape:window-height="712"
     inkscape:window-x="0"
     inkscape:window-y="0"
     inkscape:window-maximized="1"
     units="px" />
  <metadata
     id="metadata7">
    <rdf:RDF>
      <cc:Work
         rdf:about="">
        <dc:format>image/svg+xml</dc:format>
        <dc:type
           rdf:resource="http://purl.org/dc/dcmitype/StillImage" />
        <dc:title></dc:title>
      </cc:Work>
    </rdf:RDF>
  </metadata>
  <g
     inkscape:label="Layer 1"
     inkscape:groupmode="layer"
     id="layer1"
     transform="translate(-246.28218,-654.58042)">
    <path
       style="fill:#018e9e;fill-opacity:1"
       d="m 279.55939,720.11378 c -0.70078,-0.24756 -2.26861,-1.12662 -3.48409,-1.95347 -3.71107,-2.52452 -2.41213,-2.31141 -14.0885,-2.31141 -10.99864,0 -11.38469,-0.0394 -12.01985,-1.22617 -0.16981,-0.3173 -0.25533,-8.10605 -0.25533,-23.25271 0,-24.90806 -0.0857,-23.47404 1.44177,-24.10676 0.39466,-0.16348 1.26395,-0.26255 1.93175,-0.22017 l 1.21417,0.077 0.124,19.21872 c 0.11993,18.59065 0.14019,19.25113 0.61995,20.21065 0.33319,0.66639 0.82152,1.15219 1.48791,1.48022 0.90793,0.44693 1.6954,0.4996 9.29937,0.62193 9.54174,0.15351 9.37806,0.11869 11.33736,2.41208 1.5484,1.81242 2.71217,2.38905 4.55292,2.2559 1.66205,-0.12022 2.87113,-0.82579 3.87302,-2.26012 0.3633,-0.52009 1.17052,-1.24544 1.79386,-1.61189 l 1.13333,-0.66627 8.43221,-0.12741 c 7.83433,-0.11837 8.49186,-0.16233 9.27346,-0.61995 0.46268,-0.27091 1.0761,-0.80755 1.36313,-1.19255 0.51761,-0.69423 0.5229,-0.86009 0.64588,-20.21065 l 0.12399,-19.51066 1.66834,0 c 1.4927,0 1.74072,0.0724 2.35584,0.6876 l 0.68751,0.68759 0,22.95316 0,22.95318 -0.80986,0.72361 -0.80985,0.72361 -10.41937,0 c -11.68754,0 -10.98374,-0.0984 -13.78123,1.92695 -3.48788,2.5252 -5.46251,3.1254 -7.69169,2.33792 z m -2.21409,-15.31841 c -2.12316,-1.23932 -3.73773,-1.47738 -9.28291,-1.36871 -2.79601,0.0548 -5.86481,0.11029 -6.81954,0.12334 l -1.73588,0.0237 0,-21.82255 0,-21.82254 3.34777,-0.0759 c 3.58741,-0.0813 7.14527,0.23388 9.54737,0.84581 1.92279,0.48982 4.73969,1.87689 5.76561,2.83906 l 0.80595,0.75585 0,20.57006 c 0,16.30395 -0.0643,20.56491 -0.30998,20.54525 -0.17049,-0.0136 -0.76377,-0.28969 -1.31839,-0.61343 z m 6.58803,-20.04755 0,-20.68578 0.92995,-0.73239 c 3.06692,-2.41541 7.65753,-3.52084 14.63237,-3.52354 l 3.78309,-0.002 -0.0633,21.88454 -0.0634,21.88454 -1.73588,-0.0231 c -0.95474,-0.0127 -3.96774,-0.0685 -6.69556,-0.12398 -5.46768,-0.11122 -6.61867,0.0527 -9.10631,1.2972 -0.78036,0.39037 -1.47782,0.70977 -1.5499,0.70977 -0.0721,0 -0.13107,-9.3086 -0.13107,-20.68578 z"
       id="path4201"
       inkscape:connector-curvature="0" />
  </g>
</svg>
